<svg width="60" height="68" viewBox="0 0 60 68" fill="none" xmlns="http://www.w3.org/2000/svg">
<path d="M4.51318 56.3466H9.08766C10.3743 56.3466 11.38 56.6629 12.1049 57.2954C12.8297 57.9279 13.192 58.8074 13.1917 59.9339V60.0977C13.1917 60.8079 13.0187 61.4361 12.6726 61.9824C12.3252 62.5299 11.8219 62.9584 11.2289 63.2115L13.9379 67.8165H11.0018L8.82812 63.785H7.04374V67.8165H4.51318V56.3466ZM8.71457 61.853C9.37425 61.853 9.8663 61.7 10.1907 61.3941C10.5152 61.0882 10.6774 60.684 10.6774 60.1814V60.052C10.6774 59.5495 10.5152 59.1613 10.1907 58.8876C9.8663 58.6139 9.37965 58.4773 8.73079 58.4779H6.96264V61.8538L8.71457 61.853Z" fill="white"/>
<path d="M17.8973 67.9985C17.2373 67.9985 16.6344 67.8947 16.0886 67.6871C15.5646 67.4936 15.0846 67.1954 14.6773 66.8103C14.2803 66.4304 13.9679 65.9696 13.7608 65.4583C13.5392 64.9069 13.4289 64.3163 13.4363 63.7212V63.4426C13.4299 62.8521 13.5431 62.2665 13.7689 61.7219C13.9826 61.2094 14.294 60.7445 14.6854 60.3535C15.0822 59.9608 15.5541 59.6541 16.0723 59.4521C16.6284 59.2352 17.2201 59.1268 17.8162 59.1326H17.9622C18.5244 59.1267 19.0827 59.2267 19.6086 59.4276C20.0892 59.6103 20.53 59.8858 20.9064 60.2388C21.2702 60.5856 21.56 61.0038 21.758 61.4679C21.9662 61.9568 22.0711 62.4843 22.0662 63.0165V64.2292H15.7872C15.8626 64.7864 16.1005 65.2289 16.5009 65.5567C16.9013 65.8844 17.415 66.0483 18.042 66.0483H18.1393C18.6201 66.0541 19.0963 65.9535 19.5344 65.7533C19.9561 65.5567 20.2968 65.3163 20.5563 65.0322L21.7392 66.5563C21.5208 66.7744 21.2786 66.9668 21.0174 67.1299C20.7316 67.31 20.4302 67.4635 20.1171 67.5888C19.794 67.7189 19.4601 67.82 19.1194 67.8906C18.786 67.961 18.4462 67.9967 18.1056 67.9972L17.8973 67.9985ZM19.779 62.7371C19.7465 62.202 19.56 61.765 19.2193 61.426C18.8787 61.0871 18.4376 60.9177 17.896 60.918H17.8473C17.3388 60.918 16.9062 61.0791 16.5496 61.4014C16.193 61.7237 15.9605 62.1694 15.8521 62.7384L19.779 62.7371Z" fill="white"/>
<path d="M22.9733 56.0176H25.3904V67.8169H22.9733V56.0176Z" fill="white"/>
<path d="M30.8079 67.9985C30.1828 68.0046 29.5618 67.8963 28.9749 67.6789C28.4374 67.4811 27.9441 67.1775 27.5235 66.7858C27.1178 66.4033 26.7947 65.9402 26.5745 65.4256C26.3444 64.8877 26.2281 64.3072 26.233 63.7212V63.3921C26.2281 62.8062 26.3444 62.2257 26.5745 61.6878C26.795 61.1742 27.1179 60.7121 27.5231 60.3302C27.9438 59.9386 28.437 59.635 28.9745 59.437C29.5614 59.2197 30.1824 59.1114 30.8075 59.1175H30.9535C31.5786 59.1114 32.1996 59.2197 32.7865 59.437C33.324 59.635 33.8173 59.9386 34.238 60.3302C34.6436 60.7128 34.9666 61.1758 35.1869 61.6904C35.417 62.2283 35.5333 62.8088 35.5284 63.3947V63.7225C35.5334 64.3084 35.4171 64.889 35.1869 65.4268C34.9668 65.9415 34.6437 66.4045 34.238 66.787C33.8174 67.1788 33.3241 67.4824 32.7865 67.6802C32.1996 67.8976 31.5786 68.0059 30.9535 67.9998L30.8079 67.9985ZM30.936 66.1794C31.2251 66.1826 31.5111 66.1181 31.7714 65.9909C32.0251 65.8658 32.2492 65.6869 32.4284 65.4665C32.62 65.2283 32.7658 64.9559 32.8583 64.6635C32.9641 64.3327 33.0161 63.9868 33.0124 63.6393V63.4754C33.0161 63.1278 32.964 62.7819 32.8583 62.4511C32.7657 62.1588 32.6199 61.8864 32.4284 61.6481C32.2489 61.428 32.0249 61.2492 31.7714 61.1237C31.511 60.9968 31.2251 60.9323 30.936 60.9353H30.8225C30.5333 60.9323 30.2474 60.9968 29.987 61.1237C29.7335 61.2492 29.5095 61.428 29.3301 61.6481C29.1378 61.8873 28.9895 62.1592 28.8921 62.4511C28.7811 62.7808 28.7262 63.1272 28.7299 63.4754V63.6393C28.7262 63.9875 28.781 64.3338 28.8921 64.6635C28.9894 64.9555 29.1377 65.2274 29.3301 65.4665C29.5093 65.6869 29.7334 65.8658 29.987 65.9909C30.2474 66.1181 30.5333 66.1826 30.8225 66.1794H30.936Z" fill="white"/>
<path d="M38.7403 67.9985C38.3385 68.0033 37.9386 67.9425 37.5561 67.8182C37.2175 67.7081 36.9034 67.5323 36.6315 67.3007C36.3667 67.0747 36.1551 66.792 36.012 66.4731C35.8689 66.1542 35.7979 65.8071 35.8042 65.457V65.3095C35.8042 63.4634 37.4858 62.5403 40.8491 62.54H41.4817V62.2942C41.4817 61.9121 41.352 61.6062 41.0924 61.3764C40.8329 61.1467 40.4436 61.0317 39.9245 61.0314H39.8596C39.405 61.0367 38.9538 61.1113 38.5213 61.2527C38.0404 61.4048 37.5758 61.6052 37.1344 61.8508L36.2106 60.165C36.7618 59.8344 37.3535 59.5783 37.9706 59.403C38.6217 59.2123 39.2962 59.1157 39.974 59.1162H40.12C40.6199 59.1103 41.1178 59.1821 41.5961 59.3292C42.0145 59.4579 42.4033 59.6697 42.7398 59.952C43.063 60.231 43.3183 60.5815 43.486 60.9762C43.6644 61.3859 43.7536 61.853 43.7536 62.3774V65.868C43.7523 66.203 43.7795 66.5374 43.8347 66.8677C43.8893 67.1873 43.9597 67.504 44.0456 67.8165H41.7746C41.7169 67.671 41.674 67.52 41.6465 67.3658C41.6141 67.1967 41.587 67.0192 41.5654 66.8332C41.2212 67.1859 40.8139 67.4696 40.365 67.669C39.8872 67.8889 39.3456 67.9987 38.7403 67.9985ZM39.3567 66.1466C39.7578 66.1465 40.1548 66.0658 40.5247 65.909C40.8913 65.7586 41.2228 65.5326 41.498 65.2453V63.967H40.914C39.0428 63.967 38.1074 64.3713 38.1077 65.1797V65.2289C38.1077 65.5023 38.2215 65.7235 38.4492 65.8926C38.6768 66.0617 38.9794 66.1463 39.3567 66.1466Z" fill="white"/>
<path d="M48.6192 67.9985C48.0653 68.0044 47.516 67.8957 47.0052 67.6789C46.5255 67.4745 46.0922 67.1734 45.7318 66.7939C45.3668 66.4041 45.0827 65.9444 44.8964 65.4419C44.6922 64.892 44.5909 64.3085 44.5976 63.7212V63.3921C44.5909 62.8048 44.6922 62.2214 44.8964 61.6714C45.0827 61.1689 45.3668 60.7092 45.7318 60.3194C46.0922 59.94 46.5255 59.6388 47.0052 59.4345C47.516 59.2177 48.0653 59.1089 48.6192 59.1149H48.7183C49.2228 59.1102 49.7237 59.202 50.1944 59.3853C50.6391 59.5595 51.0466 59.8182 51.3948 60.1473V56.0176H53.8119V67.8169H51.8977C51.8359 67.6484 51.7871 67.4754 51.7517 67.2994C51.7082 67.0981 51.6757 66.9042 51.6544 66.7176C51.2971 67.1223 50.8571 67.4439 50.3648 67.6599C49.8453 67.8872 49.2844 68.0017 48.7183 67.9959L48.6192 67.9985ZM49.3168 66.1794C49.6059 66.1826 49.8919 66.1181 50.1522 65.9909C50.4062 65.8659 50.6305 65.687 50.81 65.4665C51.0015 65.2282 51.1472 64.9558 51.2399 64.6635C51.3455 64.3327 51.3975 63.9868 51.394 63.6393V63.4754C51.394 62.7215 51.202 62.1097 50.8181 61.6399C50.4342 61.1701 49.9335 60.9348 49.3159 60.934H49.1879C48.8987 60.9309 48.6128 60.9954 48.3524 61.1224C48.0988 61.2477 47.8747 61.4265 47.6955 61.6468C47.5038 61.885 47.358 62.1574 47.2656 62.4498C47.1598 62.7806 47.1078 63.1265 47.1115 63.4741V63.638C47.1077 63.9856 47.1598 64.3315 47.2656 64.6622C47.3572 64.955 47.5025 65.2278 47.6938 65.4665C47.8728 65.6871 48.0969 65.866 48.3507 65.9909C48.611 66.1182 48.897 66.1827 49.1861 66.1794H49.3168Z" fill="white"/>
<path d="M18.5231 52.4739C2.04961 29.724 16.6926 9.96873 37.9096 26.6487C38.0156 26.7323 38.0924 26.848 38.1287 26.9789C38.1651 27.1098 38.159 27.249 38.1115 27.3762C36.2306 32.4276 30.1915 32.0196 26.5288 25.1677C26.4713 25.0593 26.3839 24.9701 26.2772 24.9108C26.1704 24.8516 26.049 24.825 25.9276 24.8341C25.8061 24.8432 25.6899 24.8878 25.5931 24.9623C25.4962 25.0368 25.4228 25.1381 25.3818 25.2539C24.4089 28.0058 22.5076 30.9151 20.4927 32.6803C20.4017 32.7604 20.3354 32.8653 20.3018 32.9825C20.2682 33.0996 20.2686 33.2241 20.3032 33.341C20.3377 33.4578 20.4048 33.5622 20.4965 33.6416C20.5882 33.721 20.7005 33.772 20.8201 33.7886C34.3617 35.6642 33.8115 44.4589 30.4293 51.4229C30.1676 51.9611 30.7174 52.5339 31.2566 52.282C42.4627 47.0491 52.1679 42.4924 59.6397 38.9129C59.7474 38.8615 59.8385 38.7802 59.9023 38.6785C59.9661 38.5768 60 38.4589 60 38.3384C60 38.218 59.9661 38.1001 59.9023 37.9984C59.8385 37.8967 59.7474 37.8154 59.6397 37.764C57.6167 36.8049 54.8556 35.5012 52.9346 34.5757C52.7902 34.5058 52.6776 34.383 52.6197 34.2322C52.5618 34.0814 52.563 33.914 52.623 33.764C56.7364 23.3948 54.0607 3.26002 29.5102 0.202801C5.32723 -2.80655 -16.5373 28.2788 17.6471 53.364C18.2272 53.7901 18.9461 53.0583 18.5231 52.4739Z" fill="white"/>
</svg>
