<svg width="170" height="58" viewBox="0 0 170 58" fill="none" xmlns="http://www.w3.org/2000/svg">
<path d="M35.9295 27.896C35.8488 28.2509 35.7678 28.6058 35.6865 28.9607C37.1164 26.3131 39.0461 24.1617 41.7182 22.7006L41.647 22.595L39.6783 23.4704C40.5327 22.5805 44.2797 20.9163 47.2951 20.7294C50.1069 20.5551 52.7318 21.1303 55.4189 22.1349L54.9463 22.2668C61.6583 25.4056 63.9681 30.7283 62.8375 37.778L63.0062 37.7536C63.1291 36.8646 63.2515 35.9751 63.369 35.1349C63.5881 35.3516 63.7822 35.9761 63.7096 36.493C63.5091 37.9193 63.1935 39.328 62.5563 40.6206C61.9831 41.7832 61.2865 42.8889 60.6062 43.996C60.3794 44.3689 60.0302 44.6705 59.6538 44.9442L60.3019 43.9441L60.4189 44.0877C59.745 44.6525 59.0316 45.1776 58.4057 45.7912C56.8475 47.3199 55.115 48.5453 52.95 49.042C52.1232 49.2334 51.284 49.3664 50.4384 49.4402C49.642 49.507 48.8361 49.4614 48.0348 49.4533C46.3504 49.4361 44.7722 49.0207 43.3182 48.1661C42.0756 47.4342 40.8239 46.7158 39.6098 45.9393C37.8443 44.8105 36.6166 43.1784 35.5282 41.4324C35.4828 41.3575 35.51 41.236 35.5078 41.2067L38.3953 44.5157L38.5173 44.4209C38.4606 44.3342 38.4107 44.2403 38.3463 44.1608C37.5545 43.1616 36.623 42.2406 36.0076 41.1434C35.4502 40.1502 35.15 38.9817 34.901 37.8547C34.6964 36.9319 34.6697 35.9548 34.6828 35.0035C34.6951 34.1263 34.8674 33.2517 34.9654 32.3753C34.9781 32.2652 34.9654 32.1519 34.9654 31.9238C34.8379 32.2282 34.7568 32.4205 34.6624 32.6462C34.3685 31.7234 35.1159 28.7981 35.9295 27.896ZM41.8606 28.5308C42.0048 29.3363 42.1445 30.0479 42.2583 30.764C42.579 32.7808 43.1654 34.6979 44.2248 36.4695C45.1477 38.0128 46.4407 39.1334 48.042 39.8901C49.6685 40.6638 51.4725 40.9923 53.2688 40.8418C53.8046 40.7896 54.3257 40.6372 54.8048 40.3926C55.0647 40.2626 55.3663 39.8634 55.349 39.6084C55.3132 39.1411 55.1019 38.6656 54.8801 38.2362C53.6379 35.8334 51.9522 33.7827 49.8951 32.0173C48.5558 30.8678 47.115 29.9039 45.4697 29.2469C44.3545 28.8031 43.2139 28.5232 41.8593 28.5308H41.8606Z" fill="white"/>
<path d="M140.253 23.41C139.968 22.5454 139.702 21.7521 139.447 20.9552C139.226 20.268 138.846 19.691 138.229 19.3077C137.209 18.6756 136.093 18.606 134.989 18.9839C132.62 19.7966 130.467 20.9881 128.58 22.6524C127.521 23.5861 126.442 24.5112 125.731 25.7307C124.941 27.0852 124.287 28.5191 123.575 29.9192C123.365 30.3324 123.162 30.7491 122.955 31.164L122.773 31.1315C122.732 31.0051 122.63 30.8606 122.659 30.7545C123.281 28.3923 123.874 26.0219 124.566 23.68C125.068 21.9837 125.7 20.3258 126.285 18.6553C126.347 18.5019 126.453 18.3704 126.591 18.2778C128.288 17.1296 130.21 16.5034 132.175 16.0343C133.279 15.7711 134.432 15.702 135.566 15.5828C137.62 15.3652 139.61 15.7115 141.526 16.4217C142.754 16.8768 143.907 17.4931 144.849 18.4534C145.811 19.4318 146.861 20.3592 147.33 21.6776C147.817 23.0417 148.222 24.4338 148.542 25.8463C149.044 28.0821 149.035 30.3689 148.966 32.6458C148.913 34.371 148.763 36.093 148.664 37.8164C148.589 39.1149 148.528 40.4139 148.454 41.7119C148.392 42.7689 148.25 43.8263 148.272 44.8814C148.288 45.7163 148.298 46.6071 148.995 47.3647C150.286 45.7844 150.738 43.9134 151.308 41.9846C151.489 42.1873 151.61 42.2835 151.68 42.4077C152.04 43.0398 152.414 43.6678 152.721 44.3256C152.82 44.5378 152.806 44.8674 152.715 45.0932C151.843 47.2572 150.646 49.1336 148.298 49.9983C145.849 50.9013 143.816 50.0831 142.029 48.4591C141.481 47.9625 141.15 47.2265 140.714 46.594C140.076 47.1764 139.444 47.7778 138.788 48.3489C137.696 49.2971 136.371 49.7712 134.986 50.0714C132.303 50.6529 129.788 50.0664 127.447 48.7738C125.681 47.7981 124.029 46.6355 122.954 44.8498C122.323 43.8014 122.023 42.6492 121.911 41.4442C121.86 40.9024 121.809 40.3529 121.81 39.8075C121.814 37.6855 122.509 35.7476 123.529 33.9218C124.365 32.4309 125.433 31.0821 126.695 29.926C128.077 28.6523 129.617 27.6003 131.23 26.64C133.569 25.2467 136.104 24.3532 138.729 23.6822C138.958 23.6235 139.196 23.5965 139.431 23.5549L140.253 23.41ZM140.465 27.0333H140.546C140.546 26.9127 140.537 26.7908 140.546 26.6721C140.581 26.2851 140.526 26.0851 140.025 26.0038C139.342 25.8919 138.752 26.0684 138.134 26.2436C136.08 26.8269 134.355 27.9268 133.197 29.7156C131.584 32.207 130.884 35.0225 130.79 37.95C130.745 39.3312 130.995 40.7304 131.198 42.1083C131.371 43.2762 131.612 44.4332 131.918 45.5736C132.312 47.0437 133.441 48.0789 135.307 47.7074C137.362 47.2979 138.788 46.2133 139.511 44.2213C140.17 42.4081 140.382 40.5258 140.429 38.6228C140.461 37.3017 140.338 35.9779 140.345 34.6559C140.36 32.1162 140.42 29.5747 140.465 27.0333Z" fill="white"/>
<path d="M83.4666 32.3054C83.3705 33.2251 83.2099 34.143 83.1945 35.0631C83.1796 36.0113 83.4988 36.9025 84.0866 37.6575C84.7138 38.4625 85.3537 38.327 86.1229 37.4385C87.1587 36.2411 87.4757 34.7439 87.771 33.2323C88.1397 31.346 87.4426 29.6926 86.7732 28.0225C86.4322 27.1728 86.0081 26.3456 86.0988 25.3934C86.1306 25.0616 86.1895 24.7162 86.3143 24.4114C86.5351 23.8741 86.8131 23.3599 87.0793 22.8415C87.1084 22.7842 87.2086 22.7625 87.2517 22.7381C87.1764 23.2565 87.0703 23.7612 87.0399 24.2705C87.0122 24.7451 87.444 25.2435 87.9592 25.3541C88.4127 25.4525 88.6816 25.178 88.9505 24.8299C89.57 24.0272 89.3968 23.1463 89.1524 22.3327C88.8095 21.19 88.2798 20.1434 87.2775 19.346C86.5637 18.778 86.4435 17.8493 86.6517 16.9874C86.873 16.0722 87.3714 15.2789 88.1755 14.7024C88.0009 14.9977 87.8104 15.2853 87.6544 15.59C87.1279 16.6181 87.7029 18.3509 88.731 18.8643C89.4032 19.1997 90.5451 18.8417 90.8694 18.1577C90.9523 17.9825 90.8816 17.7355 90.8816 17.5513C91.3242 17.7103 91.3768 17.997 91.1378 18.4995C90.8299 19.146 90.5909 19.8291 90.3719 20.5123C90.3449 20.5893 90.3339 20.6709 90.3393 20.7522C90.3448 20.8336 90.3666 20.913 90.4036 20.9858C90.4405 21.0586 90.4918 21.1232 90.5544 21.1758C90.617 21.2284 90.6895 21.2679 90.7678 21.292C90.9759 21.3547 91.2889 21.2468 91.4934 21.1209C92.3696 20.5732 92.7587 19.6838 92.8204 18.7279C92.8499 18.2701 92.5292 17.7405 92.2485 17.3224C91.7211 16.5373 91.1002 15.8221 90.8376 14.8776C90.5065 13.6842 90.2444 12.49 90.6857 11.2827C90.8798 10.7522 91.2 10.2678 91.5664 9.81445C91.3573 10.4195 91.0898 11.0118 90.9528 11.6322C90.7374 12.6079 90.8394 13.57 91.4444 14.4089C91.8453 14.9651 92.4644 15.2044 93.1877 15.0545C93.8467 14.9191 94.0685 14.3899 93.726 13.7953C93.5655 13.5167 93.3809 13.2535 93.1818 12.9424C93.4195 12.7207 93.7356 12.9172 93.8739 13.1406C94.2367 13.7308 94.5895 14.347 94.8204 14.9968C95.1061 15.8027 94.7777 16.5964 94.5188 17.3585C94.3401 17.8845 94.5188 18.3067 94.7124 18.7609C95.2589 18.4959 95.3546 18.1559 95.2226 17.0145C95.6666 17.2687 95.7351 17.6805 95.7719 18.0949C95.8657 19.1627 95.5306 20.1362 95.0875 21.0857C94.4072 22.5454 93.8911 24.0425 93.9991 25.6909C94.0467 26.4052 94.2358 26.7601 94.7641 26.7398C95.1115 26.7267 95.517 26.5876 95.7818 26.3682C96.7959 25.5293 96.9782 24.4091 96.7288 23.1779C96.7143 23.1066 96.7397 23.0271 96.756 22.8442C97.3714 23.6475 97.3301 24.4525 97.1007 25.234C96.8031 26.2485 96.3193 27.1109 95.3319 27.7236C94.8163 28.0441 94.5197 28.7738 94.2217 29.367C93.7682 30.27 93.4961 31.2349 93.5868 32.2648C93.6013 32.4309 93.6045 32.6219 93.6889 32.7524C93.8177 32.9519 93.9977 33.2273 94.1846 33.249C94.3791 33.2739 94.7247 33.086 94.7982 32.9072C95.0054 32.4034 95.1156 31.8589 95.2444 31.327C95.2816 31.1712 95.2499 30.9988 95.2499 30.834L95.439 30.7942C95.5124 31.0732 95.614 31.3487 95.6494 31.6327C95.6716 31.8083 95.6041 31.9984 95.5587 32.1781C95.1637 33.7994 94.6444 35.3553 93.3818 36.5549C92.088 37.7848 90.7782 39.0011 89.5446 40.2892C88.6952 41.1764 88.0753 42.2338 87.8639 43.4782C87.8494 43.5626 87.8349 43.6588 87.8639 43.7351C87.941 43.95 88.0403 44.1568 88.131 44.3672C88.317 44.2385 88.512 44.1215 88.6839 43.9766C88.765 43.9084 88.8004 43.787 88.9025 43.61C89.1582 44.4087 88.8898 44.9916 88.4372 45.5C88.1428 45.8305 87.7242 46.058 87.4594 46.4061C87.0327 46.9787 86.6469 47.5804 86.3047 48.2067C86.1383 48.5047 86.3183 48.7937 86.6617 48.7115C87.107 48.6022 87.6036 48.4532 87.9279 48.1579C88.5519 47.5895 89.0703 46.9059 89.6295 46.2738C89.5841 46.4779 89.5773 46.7497 89.4644 46.966C88.6789 48.4663 87.805 49.9052 86.312 50.8322C85.5247 51.3216 84.6793 51.6638 83.7469 51.3062C83.3524 51.1545 83.0136 50.8593 82.697 50.6592C82.127 51.1405 81.541 51.7835 80.8249 52.2092C79.3737 53.0739 77.9052 52.709 76.9428 51.0967C76.0997 51.6521 75.2757 51.5532 74.5814 50.8633C73.7356 50.0231 73.1982 49.0384 73.6122 47.7931C73.6784 47.5949 73.8816 47.4419 74.0326 47.2536C74.0326 47.7317 73.9383 48.134 74.0535 48.4641C74.2621 49.0627 74.7433 49.3255 75.2154 49.2438C75.6635 49.1666 76.1038 48.6406 76.0802 48.0564C76.0517 47.3461 75.9288 46.6391 75.8344 45.9343C75.5759 43.9969 74.6485 42.325 73.7002 40.664C73.0449 39.5149 72.0435 38.7478 70.8793 38.1568C70.0113 37.7161 69.2195 37.1992 68.6712 36.3377C68.0739 35.3986 67.9455 33.1894 68.6712 32.249C68.6884 32.2273 68.7324 32.2264 68.8072 32.2038C68.8072 32.6101 68.7564 33.012 68.8263 33.3912C68.868 33.617 69.073 33.9434 69.253 33.9782C69.4331 34.013 69.7864 33.7976 69.8734 33.6044C70.0653 33.1822 70.219 32.7108 70.2444 32.2499C70.3741 29.8858 70.6617 27.501 69.7397 25.2146C69.5728 24.8006 69.3397 24.3798 69.0331 24.061C68.2698 23.2664 67.4145 22.5593 66.6558 21.7611C65.5787 20.6274 64.692 19.3356 64.4698 17.7658C64.2512 16.2217 64.6154 14.7687 65.6195 13.5041C66.1442 12.8436 66.7832 12.3785 67.5696 12.1017C67.6544 12.0719 67.7542 12.085 67.9211 12.0724C67.8304 12.1979 67.8004 12.295 67.7397 12.323C66.7914 12.7487 66.3415 13.5872 66.0381 14.4866C65.6834 15.5372 65.7007 16.6086 66.0589 17.6859C66.331 18.504 66.6875 19.1415 67.6254 19.3533C68.2816 19.5014 68.7682 19.2602 69.1106 18.816C69.4793 18.3369 69.7043 17.7482 69.8979 17.1391C69.9886 17.4443 70.0589 17.7559 70.17 18.0534C70.3646 18.5789 70.756 18.9212 71.3161 18.9284C71.8149 18.9343 72.2803 18.7392 72.5537 18.2724C73.0571 17.4145 73.0721 16.2641 72.0186 15.7065C71.9505 15.6704 71.9102 15.5823 71.8195 15.474C72.7446 15.5602 73.1079 16.2271 73.4975 16.852C73.9596 17.5933 73.844 18.3812 73.6666 19.174C73.4975 19.9325 73.717 20.6188 74.1433 21.2346C74.4154 21.6302 75.1818 21.8315 75.5342 21.6663C75.8544 21.5164 76.2081 20.5493 76.0689 20.0933C75.8535 19.3858 75.5764 18.6963 75.3705 17.9861C75.1832 17.3382 75.4 16.912 75.9342 16.5865C75.99 17.0994 75.9678 17.6809 76.1329 18.2037C76.3251 18.8137 77.0748 18.8661 77.4227 18.3211C78.156 17.1703 77.7102 15.7476 76.4204 15.567C76.2272 15.5399 76.0462 15.427 75.8431 15.3467C76.3124 15.0523 77.0821 15.106 77.4997 15.4866C77.7504 15.7196 77.9727 15.981 78.1623 16.2655C78.3959 16.61 78.6381 16.9134 79.1061 16.7716C79.4743 16.6601 79.6353 16.2108 79.5093 15.7331C79.4721 15.5909 79.4186 15.4532 79.4186 15.2898C79.6792 15.4936 79.8961 15.7473 80.0565 16.036C80.2169 16.3248 80.3175 16.6426 80.3524 16.9707C80.4884 18.2349 79.7855 19.1993 79.0639 20.1384C78.3814 21.0274 77.6041 21.8613 77.0435 22.8208C76.6199 23.5432 76.3982 24.4136 76.2272 25.2471C76.1007 25.8625 76.1619 26.5276 76.2113 27.1646C76.2567 27.7796 76.8716 28.3597 77.507 28.4324C77.6526 28.4491 77.8852 28.3209 77.965 28.1909C78.3986 27.4852 78.7292 26.7483 78.253 25.8738C78.6979 26.1519 78.8503 26.4896 78.917 26.9068C79.122 28.1995 78.6304 29.316 78.1038 30.4371C77.4639 31.7988 77.1592 33.2472 77.2639 34.7403C77.322 35.5135 77.4977 36.2735 77.785 36.9942C78.385 38.5013 79.2122 39.8919 80.3954 41.0333C80.8739 41.4943 81.4118 41.8717 82.1333 41.9029C82.6907 41.9273 83.0612 41.5972 83.2403 41.1985C83.5578 40.4924 83.5945 39.7294 83.2304 38.9907C82.7369 37.9888 82.4399 36.9202 82.4644 35.8113C82.4925 34.5624 82.9777 33.4201 83.4666 32.3054Z" fill="white"/>
<path d="M107.651 25.4733C106.857 26.0043 106.136 26.4987 105.402 26.9714C105.094 27.1687 104.771 27.3629 104.428 27.4775C104.156 27.5678 103.856 27.4852 103.8 27.1267C103.755 26.8233 103.787 26.5429 104.175 26.4495C104.716 26.3217 105.268 26.2138 105.789 26.0237C106.837 25.6399 107.875 25.2237 108.904 24.7902C110.669 24.0475 112.434 23.3003 114.182 22.5178C115.418 21.9638 116.631 21.3579 117.838 20.7453C118.048 20.6382 118.155 20.3294 118.363 20.2143C118.583 20.0928 118.905 19.9958 119.116 20.0707C119.269 20.1244 119.444 20.5398 119.376 20.6838C119.275 20.8961 118.9 21.1877 118.756 21.1353C118.082 20.8893 117.587 21.3209 117.067 21.5268C115.728 22.0578 114.428 22.6867 113.107 23.2791C113.952 24.4737 114.319 25.8625 114.603 27.2595C114.889 28.6533 115.098 30.0617 115.228 31.4783C115.372 33.0635 115.436 34.6609 115.44 36.2533C115.444 38.179 115.184 40.0956 114.582 41.9205C113.925 43.9239 113.163 45.8917 112.299 47.8157C111.545 49.487 110.388 50.947 108.931 52.0661C107.411 53.2441 105.95 54.5042 104.388 55.6226C102.909 56.6814 101.197 57.2584 99.3958 57.536C97.0008 57.9049 95.0153 57.1107 93.4262 55.3386C92.6697 54.4952 92.3327 53.4459 92.2357 52.3235C92.2234 52.179 92.2067 52.035 92.1745 51.7216C91.5654 52.296 91.0711 52.77 90.5677 53.2351C90.2157 53.5611 89.8665 53.8934 89.4887 54.1877C89.1667 54.4383 88.6525 54.3715 88.486 54.087C88.2452 53.6762 88.4579 53.4184 88.8121 53.2242C89.1971 53.0134 89.5686 52.7678 89.9731 52.6057C91.7282 51.9009 93.1586 50.6746 94.7414 49.6953C96.2402 48.7679 97.6996 47.7778 99.1885 46.8342C100.262 46.1533 101.365 45.5199 102.432 44.8259C102.659 44.6778 102.81 44.3744 102.934 44.1153C103.078 43.8118 103.314 43.657 103.586 43.7825C103.797 43.8796 104.077 44.1676 104.056 44.3387C104.028 44.5735 103.724 44.9785 103.574 44.9632C102.505 44.8544 101.833 45.6079 101.014 46.0337C100.668 46.2143 100.347 46.44 100.007 46.6292C99.3123 47.0202 99.1631 47.2992 99.3178 47.9562C99.4135 48.3625 99.9686 48.7061 100.569 48.7291C101.622 48.7702 102.532 48.3332 103.394 47.8157C104.472 47.1687 105.24 46.2355 105.828 45.1167C107.033 42.8222 107.922 40.4179 108.342 37.8697C108.569 36.4949 108.584 35.0848 108.682 33.6897C108.704 33.3246 108.704 32.9585 108.682 32.5935C108.622 31.4647 108.516 30.3423 108.491 29.2154C108.466 28.1133 108.156 27.0802 107.851 26.0404C107.812 25.9045 107.755 25.7664 107.651 25.4733Z" fill="white"/>
<path d="M24.5651 16.0619C28.6367 15.3395 32.737 14.8058 36.9751 14.301C34.2309 15.6379 32.3642 17.5748 31.5406 20.3913C31.2531 21.3751 31.1211 22.4045 30.9148 23.4123C30.5624 25.1329 30.1982 26.8509 29.8567 28.5733C29.571 30.0154 29.3275 31.4656 29.0349 32.9077C28.7968 34.0816 28.4907 35.2411 28.2585 36.415C28.0703 37.3631 27.9583 38.3216 27.7873 39.2711C27.5061 40.8342 27.2299 42.3991 26.9066 43.9541C26.4494 46.1511 25.951 48.3395 25.4431 50.6566C25.0372 50.0091 24.6481 49.4488 24.3207 48.8546C23.1184 46.6725 21.9624 44.4647 20.7379 42.2944C19.5587 40.2012 18.3016 38.151 17.1061 36.0664C16.3733 34.7873 15.7066 33.4707 14.9837 32.1835C14.2127 30.8123 13.4064 29.4596 12.6204 28.0961C11.9202 26.8816 11.2068 25.6734 10.5343 24.4435C9.49435 22.5404 7.80909 21.4686 5.84718 20.7191C4.57734 20.2342 3.25444 20.0472 1.91521 19.942C1.40092 19.9014 0.881197 19.9353 0.356934 19.8635C7.0812 18.3623 13.9356 17.7514 20.7293 16.7373L20.7674 16.9328C20.61 16.9671 20.4286 16.9622 20.2984 17.0412C19.1909 17.7148 18.2041 18.486 17.8921 19.8504C17.6073 21.0974 17.9211 22.214 18.4481 23.3396C19.2322 25.0137 20.3506 26.4766 21.3107 28.0392C22.5146 29.9999 23.7205 31.9599 24.9284 33.9191C25.444 34.7539 25.9714 35.5801 26.5016 36.4073C26.5324 36.4556 26.6059 36.4764 26.683 36.5238C27.2957 33.9832 27.9442 31.4896 28.4885 28.9734C28.9134 27.008 29.2304 25.0182 29.5542 23.033C29.7968 21.5453 29.9719 20.0463 30.1819 18.5532C30.2771 17.876 29.4109 16.6709 28.6667 16.5188C27.6159 16.303 26.5651 16.0569 25.4744 16.293C25.1955 16.3535 24.8916 16.3021 24.5996 16.3021C24.5878 16.2217 24.5763 16.1416 24.5651 16.0619Z" fill="white"/>
<path d="M162.291 51.9466L163.652 51.733C163.661 51.7583 163.67 51.7831 163.679 51.8084L162.35 52.4405C162.751 53.981 163.159 55.5559 163.568 57.1284L163.394 57.1821L162.104 53.1868C161.923 54.382 161.736 55.5902 161.551 56.7988L161.404 56.7853C161.52 55.3947 161.637 54.0032 161.754 52.6107L160.564 52.6753L160.526 52.4992L161.803 52.0929C161.263 50.1212 160.674 48.1504 160.19 46.1543C159.631 43.8426 159.162 41.5088 158.658 39.1836C158.269 37.3853 157.922 35.5775 157.497 33.7878C156.691 30.3921 155.843 27.0058 155.011 23.6164C154.997 23.5604 154.969 23.5081 154.91 23.3613C154.728 23.9564 154.579 24.4544 154.428 24.9529L154.253 24.9158L154.55 22.8493L153.339 23.9889L153.172 23.8507C153.433 23.4981 153.625 23.0475 153.97 22.8123C154.821 22.2254 154.664 21.503 154.423 20.7214C154.305 20.3399 154.205 19.9539 154.096 19.5683L154.228 19.5082C154.478 20.0347 154.727 20.5616 154.97 21.07C155.124 20.5282 155.283 19.9688 155.458 19.3543C155.911 19.6505 155.594 19.9642 155.581 20.2293C155.569 20.5223 155.476 20.8117 155.46 21.1246C159.058 17.0882 162.983 13.404 167.303 9.7947C167.031 9.61997 166.8 9.51703 166.634 9.34952C166.495 9.20911 166.432 8.99329 166.336 8.81089L166.44 8.7233L167.141 9.29173C167.2 8.69079 167.254 8.15034 167.308 7.61035H167.489C167.547 8.1973 167.604 8.78876 167.665 9.41634L168.677 8.58378C169.01 8.84023 169.015 8.84655 168.619 9.23258C168.405 9.44163 168.166 9.62584 167.959 9.80418L169.232 10.8679C169.193 10.9257 169.153 10.9835 169.113 11.0417L167.554 10.1663C167.431 11.3853 167.334 12.5525 167.191 13.7137C167.035 14.9747 166.838 16.2308 166.653 17.4887C166.491 18.5939 166.319 19.6983 166.157 20.804C166.005 21.8425 165.862 22.8845 165.709 23.9239C165.55 25.0129 165.381 26.1001 165.219 27.1887C165.075 28.1612 164.937 29.1342 164.791 30.1063C164.625 31.2106 164.447 32.3136 164.283 33.4184C164.106 34.6253 163.921 35.8317 163.774 37.0422C163.672 37.8707 163.638 38.7073 163.55 39.5376C163.428 40.6663 163.274 41.7951 163.147 42.9238C163.062 43.6855 163.011 44.4508 162.926 45.2125C162.802 46.3083 162.643 47.4004 162.532 48.498C162.46 49.2123 162.453 49.9329 162.406 50.6503C162.379 51.0729 162.332 51.4906 162.291 51.9466Z" fill="white"/>
<path d="M112.17 7.52438C113.4 7.09546 114.42 7.90771 114.825 8.79535C115.409 10.0772 115.335 11.3996 115.055 12.7401C114.732 14.291 114.252 15.7823 113.369 17.1101C112.497 18.4195 111.419 19.5275 109.877 20.0359C109.012 20.3207 108.124 20.5266 107.259 19.9456C106.792 19.6295 106.692 19.1708 106.61 18.6872C106.581 18.5202 106.606 18.3441 106.501 18.1337C106.327 18.5734 106.131 19.006 105.986 19.4548C105.836 19.9189 105.675 20.3542 105.186 20.5727C104.875 20.7113 104.592 20.7303 104.359 20.4332C104.126 20.1361 104.264 19.8805 104.508 19.6936C106.252 18.3617 107.118 16.423 108.098 14.5641C109.084 12.6949 110.097 10.8379 111.015 8.93622C111.541 7.84856 111.887 6.67602 112.343 5.5536C112.501 5.16576 112.726 4.7996 112.961 4.45059C113.11 4.2298 113.353 4.1097 113.619 4.29933C113.884 4.48896 114.09 4.72058 113.877 5.05966C113.6 5.50077 113.303 5.92879 113.007 6.35726C112.755 6.71575 112.495 7.07018 112.17 7.52438Z" fill="white"/>
<path d="M160.125 10.5536C159.652 10.6849 159.051 10.3517 158.646 9.74401C157.885 8.60398 157.432 7.33347 157.061 6.04173C156.835 5.24935 156.71 4.4055 157.123 3.60364C157.401 3.06184 157.894 2.93948 158.315 3.39595C158.735 3.85241 159.05 4.38563 159.39 4.85655C159.807 3.2894 160.709 1.88614 161.742 0.555122C161.857 0.403436 161.996 0.271899 162.154 0.165931C162.696 -0.185334 163.202 0.0846618 163.24 0.733465C163.311 1.96515 162.986 3.12641 162.514 4.23799C161.739 6.07333 160.903 7.88339 160.121 9.71602C160.031 9.92868 160.119 10.2212 160.125 10.5536Z" fill="white"/>
</svg>
