<svg width="147" height="147" viewBox="0 0 147 147" fill="none" xmlns="http://www.w3.org/2000/svg">
<path d="M0 76.4581C-3.50387e-06 36.3785 38.9091 -3.86092 77.6294 0.296761C116.35 4.45444 145.437 33.1803 146.948 74.3792C148.459 115.578 116.728 148.462 74.4185 146.95C32.1095 145.438 3.50387e-06 116.538 0 76.4581Z" fill="url(#paint0_linear_555_54)"/>
<path d="M68.5126 66.5861C61.9323 85.5376 49.0982 107.826 40.8987 103.324C32.6992 98.8224 34.04 75.2274 41.4398 55.3878C48.8396 35.5482 60.8572 23.0699 69.1813 25.9717C77.5054 28.8735 75.0929 47.6346 68.5126 66.5861Z" fill="black"/>
<path d="M82.9955 66.4068C89.2719 85.4763 101.733 107.952 109.975 103.514C118.216 99.0774 117.233 75.4004 110.153 55.4325C103.073 35.4646 91.2791 22.8357 82.937 25.667C74.595 28.4984 76.7192 47.3374 82.9955 66.4068Z" fill="black"/>
<path d="M34.8814 127.566C30.895 130.845 27.2407 126.071 30.4797 122.002C31.9415 119.942 43.491 110.347 49.0831 105.807C69.0983 91.3559 82.1373 95.3674 87.0373 97.4186C101.322 103.398 111.254 112.285 114.278 114.942C117.302 117.6 121.829 120.175 121.254 122.832C120.27 127.386 116.218 126.123 114.693 124.659C112.617 122.666 102.014 114.721 96.422 110.458C76.4234 95.7742 62.9525 104.926 52.156 112.7C43.8509 118.68 39.2832 123.945 34.8814 127.566Z" fill="black"/>
<defs>
<linearGradient id="paint0_linear_555_54" x1="73.5" y1="0" x2="73.5" y2="147" gradientUnits="userSpaceOnUse">
<stop offset="0.08" stop-color="#25D8FF"/>
<stop offset="1" stop-color="#064580"/>
</linearGradient>
</defs>
</svg>
