<svg width="247" height="247" viewBox="0 0 247 247" fill="none" xmlns="http://www.w3.org/2000/svg">
<path d="M247 118.53C247 185.874 181.622 253.487 116.561 246.501C51.5008 239.515 2.626 191.248 0.0870099 122.023C-2.45198 52.7972 50.866 -2.45616 121.957 0.0842197C193.047 2.6246 247 51.1849 247 118.53Z" fill="#FFD915"/>
<path d="M247 118.53C247 185.874 181.622 253.487 116.561 246.501C51.5008 239.515 2.626 191.248 0.0870099 122.023C-2.45198 52.7972 50.866 -2.45616 121.957 0.0842197C193.047 2.6246 247 51.1849 247 118.53Z" fill="url(#paint0_linear_524_139)"/>
<path d="M117.146 112.013C119.525 145.638 114.452 188.554 98.8096 187.028C83.1666 185.502 69.6229 148.173 67.9223 112.634C66.2217 77.0954 76.5245 49.8702 91.3012 48.8432C106.078 47.8163 114.767 78.3887 117.146 112.013Z" fill="black"/>
<path d="M129.287 107.354C125.696 140.895 129.215 183.932 144.905 182.844C160.596 181.756 175.481 144.825 178.464 109.352C181.447 73.8792 172.133 46.3794 157.401 44.9395C142.668 43.4995 132.879 73.8133 129.287 107.354Z" fill="black"/>
<path d="M29.3051 93.0785C28.7896 89.378 26.3746 87.7757 23.165 87.7757C20.3186 87.7757 18.1451 90.148 17.4436 94.0554C16.4665 99.4977 16.3085 106.196 16.4667 109.964C18.6995 163.132 45.2136 191.712 57.6334 203.042C105.359 246.581 161.736 225.315 179.18 211.973C240.302 165.225 231.371 97.5441 228.44 90.9853C226.675 87.0342 221.602 86.9384 218.951 89.5898C216.344 92.1964 217.76 95.2761 217.974 98.6605C220.542 139.185 206.188 162.992 200.531 171.644C162.573 229.696 106.475 221.742 80.9379 205.554C42.5622 183.506 27.2119 133.129 28.4678 106.336C28.8603 97.9627 29.7574 96.3246 29.3051 93.0785Z" fill="black"/>
<defs>
<linearGradient id="paint0_linear_524_139" x1="123.5" y1="0" x2="123.5" y2="247" gradientUnits="userSpaceOnUse">
<stop stop-color="#FFD90F"/>
<stop offset="1" stop-color="#331800"/>
</linearGradient>
</defs>
</svg>
