<svg width="111" height="29" viewBox="0 0 111 29" fill="none" xmlns="http://www.w3.org/2000/svg">
<path d="M18.9077 3.52585C17.7901 5.35966 16.9108 7.92656 16.4972 9.98625C16.2647 11.1469 16.0066 12.3109 15.881 13.4861C15.7024 15.1608 15.2976 16.8929 16.064 18.4998C16.6843 19.8035 17.4271 21.0468 18.2826 22.2129C19.3238 23.6297 20.7187 24.7231 22.4133 25.29C23.6173 25.6939 24.8866 25.9542 26.1481 26.1311C28.272 26.4282 30.4068 26.2459 32.4832 25.7772C33.7294 25.4959 34.9138 24.9396 36.1183 24.4866C38.3045 23.6647 40.1759 22.3479 41.7562 20.6867C42.4961 19.9086 43.0156 18.9045 43.5274 17.9469C43.9057 17.2398 44.1088 16.4425 44.4596 15.5012C44.8983 15.9437 45.202 16.404 45.6317 16.6528C46.5025 17.5684 46.8475 18.4778 47.3602 19.4372C47.9564 20.5526 48.4828 21.7048 49.0559 22.8324C49.314 23.3406 49.682 23.804 49.8728 24.3315C50.1309 25.0456 49.6324 25.6317 49.3493 26.2398C48.4828 28.1025 46.7278 28.3338 44.9635 28.5423C44.3841 28.6107 43.8056 28.7202 43.2246 28.7351C42.1517 28.7675 41.0762 28.7123 40.0041 28.7553C38.648 28.8087 37.2953 28.9743 35.9392 28.9971C34.6322 29.0181 33.3226 28.9208 32.0141 28.8674C31.6672 28.8525 31.3223 28.7859 30.9759 28.7807C29.2253 28.7526 27.7377 27.8659 26.1962 27.2447C24.7537 26.6647 23.2326 26.3318 21.8197 25.7115C20.3164 25.0517 18.8356 24.3306 17.3936 23.5482C15.7745 22.6703 14.2098 21.696 12.6227 20.7611C11.8019 20.2775 11.0369 19.6388 10.1528 19.3347C8.73037 18.4998 7.75043 17.3494 6.54778 16.5608C5.5233 15.6846 4.57971 14.7966 3.91977 13.7133C3.12245 12.4037 2.23882 11.3408 1.54948 9.97074C1.09764 9.07609 0.659961 7.78147 0.275825 6.85203C0.102109 6.43367 -0.0431017 5.94284 0.0117748 5.51098C0.0608607 5.11153 0.306203 4.5854 0.629494 4.40211C1.26734 4.04279 2.04746 4.01186 2.76576 3.81595C3.64503 3.57659 4.61793 3.4562 5.51332 3.28403C5.91857 3.20614 6.47304 3.13026 6.88711 3.09057C8.11666 2.97308 9.13865 2.92183 10.3706 2.84876C11.137 2.80328 12.105 2.83719 12.8729 2.89712C14.1417 2.9963 15.1357 3.01557 16.4055 3.09057C17.6899 3.16654 18.2208 3.28403 18.9077 3.52585Z" fill="white"/>
<path d="M96.9488 0.695755C97.7016 0.574845 98.5542 0.401273 99.4156 0.308925C100.637 0.177851 101.864 0.0579077 103.091 0.023124C104.733 -0.0252402 106.379 0.0168155 108.022 0.0197069C108.601 0.0197069 109.18 0.0197069 109.759 0.0197069C110.708 0.0197069 110.965 0.320052 110.993 1.23258C111.066 3.47985 110.542 5.64301 110.05 7.80328C109.716 9.27094 109.17 10.6909 108.784 12.1484C108.587 12.8913 108.335 13.5625 107.834 14.1737C106.77 15.4708 105.819 16.8596 104.722 18.1274C104.143 18.7976 103.369 19.3085 102.659 19.8604C101.804 20.5246 100.952 21.2027 100.042 21.788C99.306 22.2603 98.4784 22.5836 97.7123 23.0102C96.9462 23.4378 96.1426 23.8146 95.4932 24.3727C94.3395 25.368 93.0754 26.1066 91.6002 26.4947C89.6376 27.0108 87.6519 27.4445 85.717 28.0421C83.6413 28.6843 81.5166 28.913 79.3964 28.7141C77.09 28.495 74.7969 28.6308 72.5003 28.5564C71.1471 28.5126 69.7743 28.403 68.4558 28.1183C67.4082 27.8922 67.1623 27.3218 67.0901 26.4939C66.952 24.9141 67.5552 23.5754 68.079 22.2007C68.5048 21.0836 69.0687 20.0164 69.6006 18.9413C69.679 18.7828 70.1547 17.9627 70.2438 17.875C70.2883 18.0503 70.4932 18.7775 70.5065 18.894C70.674 20.3073 71.8108 21.1186 72.5395 22.1893C73.8535 24.1168 75.8472 24.7845 77.9942 25.1271C79.6057 25.3838 81.2431 25.6107 82.8689 25.6107C84.0413 25.6081 85.2413 25.2953 86.378 24.9571C87.7873 24.5374 89.2127 24.0748 90.5071 23.3993C92.0215 22.609 93.3115 21.519 94.0456 19.8692C94.4874 18.8818 95.1947 18.0126 95.7551 17.0742C96.6718 15.5355 97.3221 13.9107 97.5083 12.1078C97.6223 10.9955 98.0107 9.90204 98.0481 8.79317C98.0909 7.443 98.1461 6.28138 97.6063 4.78218C97.4593 4.39535 97.4014 3.80193 97.3435 3.31303C97.2464 2.51029 97.1047 1.7157 96.9488 0.695755Z" fill="white"/>
<path d="M23.0608 7.5363C23.1513 8.12298 22.7307 8.50008 22.1562 8.50008C21.5817 8.50008 21.0708 8.24862 21.116 7.5363C21.1612 6.82398 21.5817 6.57252 22.1562 6.57252C22.7307 6.57252 22.9704 6.94962 23.0608 7.5363Z" fill="white"/>
<path d="M78.5732 11.7298C77.9763 11.8188 77.5933 11.4052 77.5933 10.8402C77.5933 10.2751 77.8489 9.77264 78.5732 9.81706C79.2975 9.86157 79.5531 10.2751 79.5531 10.8402C79.5531 11.4052 79.1701 11.6409 78.5732 11.7298Z" fill="white"/>
</svg>
