<svg width="49" height="13" viewBox="0 0 49 13" fill="none" xmlns="http://www.w3.org/2000/svg">
<path d="M8.34666 1.58055C7.85328 2.40261 7.46513 3.55329 7.28254 4.47659C7.1799 4.99689 7.06597 5.51867 7.01052 6.04549C6.93167 6.79621 6.75302 7.57267 7.0913 8.29299C7.36516 8.87743 7.69306 9.43476 8.07071 9.95753C8.53031 10.5926 9.14608 11.0828 9.89417 11.3369C10.4257 11.518 10.986 11.6346 11.5428 11.714C12.4804 11.8471 13.4228 11.7654 14.3394 11.5553C14.8896 11.4292 15.4124 11.1798 15.9441 10.9767C16.9092 10.6083 17.7353 10.018 18.4329 9.27333C18.7595 8.92456 18.9889 8.47445 19.2148 8.04516C19.3818 7.7282 19.4715 7.37079 19.6263 6.9488C19.82 7.14719 19.954 7.3535 20.1437 7.46505C20.5281 7.87549 20.6804 8.28317 20.9068 8.71325C21.1699 9.21324 21.4023 9.72972 21.6553 10.2352C21.7692 10.463 21.9317 10.6708 22.0159 10.9072C22.1298 11.2273 21.9098 11.4901 21.7848 11.7627C21.4023 12.5977 20.6276 12.7014 19.8487 12.7948C19.593 12.8255 19.3376 12.8746 19.0811 12.8813C18.6075 12.8958 18.1327 12.871 17.6595 12.8903C17.0608 12.9142 16.4637 12.9885 15.8651 12.9987C15.2881 13.0081 14.71 12.9645 14.1324 12.9406C13.9792 12.9339 13.827 12.904 13.6741 12.9017C12.9013 12.8891 12.2446 12.4916 11.5641 12.2132C10.9273 11.9532 10.2559 11.8039 9.63211 11.5258C8.96848 11.2301 8.31481 10.9068 7.67828 10.5561C6.96353 10.1625 6.27281 9.72579 5.57218 9.30671C5.20983 9.08991 4.87214 8.80359 4.48187 8.6673C3.85395 8.293 3.42136 7.7773 2.89046 7.42381C2.43821 7.03105 2.02167 6.63294 1.73035 6.14733C1.37838 5.56027 0.988307 5.0838 0.684003 4.46964C0.484542 4.06859 0.291334 3.48824 0.121761 3.0716C0.0450751 2.88406 -0.0190269 2.66403 0.00519787 2.47044C0.0268665 2.29138 0.135171 2.05552 0.277885 1.97336C0.559458 1.81229 0.903835 1.79842 1.22092 1.7106C1.60907 1.6033 2.03855 1.54933 2.43381 1.47215C2.6127 1.43723 2.85747 1.40322 3.04025 1.38543C3.58303 1.33276 4.03418 1.30979 4.57802 1.27703C4.91634 1.25664 5.34365 1.27184 5.68264 1.29871C6.24272 1.34317 6.68152 1.35181 7.24207 1.38543C7.80908 1.41948 8.04342 1.47215 8.34666 1.58055Z" fill="#CCCCCC"/>
<path d="M42.7972 0.31189C43.1295 0.257689 43.5059 0.179881 43.8862 0.138484C44.4253 0.0797265 44.9668 0.0259586 45.5088 0.0103659C46.2335 -0.0113146 46.9599 0.007538 47.6854 0.00883411C47.9411 0.00883411 48.1967 0.00883411 48.4523 0.00883411C48.8711 0.00883411 48.9844 0.143472 48.997 0.552534C49.0292 1.55993 48.798 2.52963 48.5805 3.49802C48.433 4.15594 48.1924 4.79245 48.0217 5.44585C47.9348 5.77884 47.8235 6.07973 47.6025 6.35373C47.1325 6.93517 46.7129 7.55774 46.2288 8.12607C45.9732 8.42653 45.6315 8.65552 45.318 8.90296C44.9405 9.20067 44.5645 9.50467 44.1626 9.76704C43.8378 9.97873 43.4725 10.1237 43.1343 10.3149C42.7961 10.5066 42.4413 10.6755 42.1547 10.9257C41.6454 11.3719 41.0873 11.703 40.4361 11.877C39.5698 12.1083 38.6932 12.3027 37.839 12.5706C36.9227 12.8585 35.9848 12.961 35.0488 12.8718C34.0307 12.7736 33.0185 12.8345 32.0046 12.8011C31.4073 12.7815 30.8013 12.7324 30.2192 12.6047C29.7568 12.5034 29.6482 12.2477 29.6164 11.8766C29.5554 11.1684 29.8216 10.5683 30.0529 9.95202C30.2409 9.45125 30.4898 8.97287 30.7246 8.49095C30.7592 8.41986 30.9692 8.05223 31.0085 8.01295C31.0282 8.09151 31.1186 8.4175 31.1245 8.46974C31.1984 9.10326 31.7003 9.46696 32.0219 9.94692C32.602 10.811 33.4821 11.1103 34.4299 11.2639C35.1413 11.3789 35.8641 11.4807 36.5818 11.4807C37.0993 11.4795 37.629 11.3393 38.1308 11.1877C38.753 10.9995 39.3822 10.7921 39.9536 10.4893C40.6221 10.1351 41.1916 9.64646 41.5156 8.90688C41.7107 8.46424 42.0229 8.07462 42.2703 7.65397C42.6749 6.9642 42.962 6.23582 43.0442 5.42763C43.0945 4.92902 43.266 4.43885 43.2825 3.94177C43.3014 3.33652 43.3258 2.81579 43.0875 2.14374C43.0226 1.97033 42.997 1.70431 42.9715 1.48515C42.9286 1.1253 42.8661 0.769106 42.7972 0.31189Z" fill="#CCCCCC"/>
<path d="M10.18 3.37834C10.2199 3.64134 10.0343 3.81038 9.78067 3.81038C9.52706 3.81038 9.30153 3.69766 9.32146 3.37834C9.34144 3.05903 9.52706 2.9463 9.78067 2.9463C10.0343 2.9463 10.1401 3.11535 10.18 3.37834Z" fill="#CCCCCC"/>
<path d="M34.6855 5.25819C34.422 5.2981 34.2529 5.11268 34.2529 4.85938C34.2529 4.60609 34.3657 4.38084 34.6855 4.40075C35.0052 4.42071 35.1181 4.60609 35.1181 4.85938C35.1181 5.11268 34.949 5.21833 34.6855 5.25819Z" fill="#CCCCCC"/>
</svg>
