<svg width="51" height="28" viewBox="0 0 51 28" fill="none" xmlns="http://www.w3.org/2000/svg">
<path d="M1.5 14.5H49.5" stroke="white" stroke-width="2" stroke-linecap="round"/>
<path d="M37.6777 1.26347C37.2872 0.87295 36.654 0.87295 36.2635 1.26347C35.8729 1.654 35.8729 2.28716 36.2635 2.67769L37.6777 1.26347ZM48.2635 14.6777L48.9706 15.3848L50.3848 13.9706L49.6777 13.2635L48.2635 14.6777ZM36.2635 2.67769L48.2635 14.6777L49.6777 13.2635L37.6777 1.26347L36.2635 2.67769Z" fill="white"/>
<path d="M37.6777 27.7071C37.2872 28.0976 36.654 28.0976 36.2635 27.7071C35.8729 27.3166 35.8729 26.6834 36.2635 26.2929L37.6777 27.7071ZM48.2635 14.2929L48.9706 13.5858L50.3848 15L49.6777 15.7071L48.2635 14.2929ZM36.2635 26.2929L48.2635 14.2929L49.6777 15.7071L37.6777 27.7071L36.2635 26.2929Z" fill="white"/>
</svg>
