<svg width="42" height="26" viewBox="0 0 42 26" fill="none" xmlns="http://www.w3.org/2000/svg">
<path d="M37.9161 1.31836H27.2778V4.22031H37.9581L37.9161 1.31836ZM35.671 21.2821C34.8639 21.8066 33.9109 22.0727 32.9432 22.0436C32.3026 22.1091 31.6552 22.0442 31.0414 21.853C30.4276 21.6618 29.8607 21.3483 29.3761 20.9323C28.4801 19.9359 28.0137 18.6371 28.0752 17.31H41.9658C42.066 15.928 41.9456 14.5392 41.6091 13.1937C41.2836 11.9136 40.7141 10.7055 39.9305 9.63317C39.1418 8.593 38.1231 7.74158 36.9509 7.14284C35.6467 6.51211 34.2083 6.19466 32.7543 6.21669C31.3869 6.20686 30.0313 6.46579 28.7676 6.97819C27.6104 7.45669 26.5618 8.15632 25.6831 9.03631C24.8068 9.93389 24.1283 10.9988 23.6897 12.1647C23.2191 13.4233 22.9845 14.7551 22.9973 16.0957C22.9757 17.4553 23.2031 18.8076 23.6687 20.0884C24.0642 21.2482 24.692 22.3188 25.5152 23.2373C26.3669 24.1391 27.4137 24.8424 28.5787 25.2955C29.8778 25.7809 31.2595 26.0185 32.6494 25.9952C34.5996 26.0549 36.5251 25.5541 38.1889 24.5545C39.8695 23.3832 41.0794 21.6722 41.6091 19.718H36.9719C36.7237 20.3645 36.2668 20.9137 35.671 21.2821ZM28.4738 12.8027C28.6371 12.2895 28.9082 11.8157 29.2696 11.4116C29.631 11.0075 30.0747 10.6821 30.5721 10.4564C31.2309 10.1656 31.9483 10.0248 32.6704 10.0448C33.1921 10.0011 33.7172 10.0686 34.2098 10.2427C34.7024 10.4167 35.1507 10.6933 35.5241 11.0533C36.2371 11.9093 36.6946 12.9422 36.846 14.0375H28.1381C28.1721 13.6193 28.2494 13.2055 28.3689 12.8027H28.4738ZM17.3739 11.8148C18.4418 11.3786 19.3698 10.6675 20.0597 9.75665C20.6938 8.78935 21.0089 7.65394 20.9619 6.50482C21.0031 5.45691 20.7947 4.414 20.3534 3.4588C19.9827 2.63127 19.3876 1.91938 18.6328 1.40068C17.8327 0.8614 16.924 0.496475 15.968 0.330461C14.8366 0.0977146 13.6827 -0.0127108 12.5268 0.00116151H0V25.8923H12.7996C13.9677 25.8932 15.1311 25.7479 16.2618 25.4601C17.3335 25.1882 18.3488 24.7355 19.2623 24.1223C20.1473 23.5208 20.8678 22.715 21.3606 21.7761C21.906 20.726 22.173 19.5581 22.137 18.3802C22.1767 16.9204 21.7593 15.4838 20.941 14.2639C20.0609 13.0371 18.7556 12.1665 17.2689 11.8148H17.3739ZM5.81227 4.42612H11.2468C11.7461 4.42552 12.2445 4.46683 12.7366 4.54961C13.1898 4.61547 13.6249 4.76941 14.0166 5.0024C14.395 5.21235 14.7016 5.52743 14.8979 5.90797C15.1409 6.36429 15.2567 6.87548 15.2336 7.38982C15.2727 7.8328 15.2036 8.27855 15.0321 8.69014C14.8606 9.10174 14.5916 9.46733 14.2474 9.75665C13.4965 10.263 12.5979 10.5159 11.6875 10.477H5.81227V4.42612ZM15.968 19.7385C15.7524 20.158 15.4264 20.5133 15.0238 20.7676C14.6048 21.0232 14.1431 21.2044 13.6599 21.3027C13.1228 21.4206 12.5735 21.4759 12.0232 21.4674H5.72834V14.3668H12.0232C13.1034 14.3204 14.1702 14.6163 15.0657 15.2107C15.4703 15.5668 15.7837 16.0114 15.9806 16.5084C16.1774 17.0054 16.2522 17.5408 16.1988 18.0715C16.2555 18.6372 16.1765 19.2081 15.968 19.7385Z" fill="white"/>
</svg>
