<svg width="46" height="34" viewBox="0 0 46 34" fill="none" xmlns="http://www.w3.org/2000/svg">
<path d="M0.000320082 8.05634C0.218391 7.08674 0.610161 6.21998 1.42562 5.57683C2.21172 4.95695 3.10732 4.69308 4.09712 4.73208C8.13804 4.89185 12.1783 5.05916 16.2189 5.22553C18.2244 5.30824 20.2295 5.38876 22.2343 5.48594C22.5329 5.5004 22.6756 5.42083 22.7985 5.1403C24.2018 1.93901 27.3187 -0.0442252 30.857 0.000748376C34.0908 0.041948 37.2329 0.547034 40.2093 1.84875C41.8818 2.58027 43.393 3.53635 44.5951 4.9277C46.4668 7.09397 46.468 9.90466 44.5945 12.069C43.1107 13.7831 41.1889 14.8291 39.088 15.5984C36.3766 16.5912 33.5566 17.0413 30.6776 16.9844C26.9889 16.9111 24.3649 15.1389 22.7963 11.8586C22.666 11.5863 22.5345 11.4985 22.2337 11.5114C16.8617 11.7438 11.4896 11.9678 6.11694 12.1857C5.2357 12.2216 4.34808 12.2823 3.47163 12.2213C1.72895 12.0999 0.383148 10.8419 0.0721584 9.14545C0.0593868 9.07563 0.0245853 9.00959 -3.90866e-07 8.94197C0.000320057 8.64665 0.00032007 8.35134 0.000320082 8.05634Z" fill="white"/>
<path d="M0.000357424 26.4763C0.218432 25.5067 0.610198 24.6402 1.42535 23.9971C2.21112 23.3772 3.1064 23.113 4.0962 23.152C8.13648 23.3118 12.1761 23.481 16.2161 23.6458C19.1938 23.7672 22.1715 23.8829 25.1485 24.0156C25.4605 24.0294 25.6243 23.9404 25.7756 23.6684C27.2204 21.0725 29.4768 19.7831 32.4599 19.8529C36.8763 19.956 41.2908 20.14 45.7063 20.2907C45.7941 20.2935 45.8812 20.3058 45.9949 20.3162C45.9949 21.0945 45.9949 21.8534 45.9949 22.6526C45.4486 22.679 44.9007 22.7126 44.3521 22.7312C40.4607 22.8617 36.5692 22.9969 32.677 23.1077C32.237 23.1202 32.0579 23.2133 32.1055 23.6753C32.1502 24.109 32.1151 24.5509 32.1151 25.0274C36.7732 25.1871 41.3751 25.3453 46 25.5038C46 26.4486 46 27.3578 46 28.3343C41.3968 28.4925 36.7837 28.6513 32.117 28.8117C32.117 29.3917 32.1001 29.9342 32.1339 30.4732C32.1393 30.5613 32.368 30.7006 32.4982 30.7063C34.2636 30.7808 36.0302 30.8362 37.7962 30.8959C40.4603 30.9862 43.1245 31.0761 45.7886 31.1667C45.8471 31.1686 45.9052 31.1783 45.9933 31.1878C45.9933 31.953 45.9933 32.7131 45.9933 33.5248C45.8592 33.5336 45.7155 33.5465 45.5712 33.5516C41.3505 33.6965 37.1292 33.8258 32.9092 33.9912C30.9181 34.0692 29.1115 33.6355 27.5544 32.364C26.819 31.7636 26.2153 31.0554 25.7951 30.2097C25.652 29.9216 25.4892 29.8071 25.1479 29.8219C19.5073 30.0641 13.8664 30.2921 8.22556 30.5232C6.80409 30.5814 5.38293 30.655 3.96114 30.6934C2.03998 30.745 0.412558 29.4219 0.0725162 27.5657C0.0597446 27.4959 0.0249431 27.4301 0.000357386 27.3622C0.000357398 27.0666 0.000357411 26.7713 0.000357424 26.4763Z" fill="white"/>
</svg>
