<svg width="58" height="28" viewBox="0 0 58 28" fill="none" xmlns="http://www.w3.org/2000/svg">
<path d="M7.28724 1.7257C8.30877 1.0281 9.45871 0.938444 10.6508 0.970514C11.8697 1.00375 13.0904 0.973541 14.3105 0.981258C14.6352 0.9833 14.9599 1.02233 15.2392 1.04124C15.2386 9.70426 15.2379 18.3169 15.2373 26.9795C14.9402 26.999 14.5998 27.0389 14.2592 27.0406C12.7579 27.0481 11.2561 27.0327 9.75482 27.0497C8.84509 27.0597 8.04569 26.7515 7.28424 26.2973C7.01858 26.0316 6.75293 25.766 6.48751 25.5005C5.98458 24.6501 5.70735 23.7458 5.75858 22.7429C5.79102 22.1034 5.75884 21.461 5.76856 20.8198C5.77663 20.2944 5.80365 19.7693 5.8239 19.1925C4.94601 19.2002 4.18165 19.2188 3.41731 19.2112C1.60909 19.1933 0.392928 17.9744 0.377836 16.169C0.369373 15.1682 0.374252 14.1671 0.37609 13.1663C0.379773 11.1179 1.56177 9.93359 3.61064 9.93927C4.32208 9.94124 5.03376 9.97387 5.76977 9.99292C5.76936 8.53094 5.79515 7.18647 5.7603 5.84366C5.72963 4.66846 5.82397 3.53725 6.49066 2.52275C6.75595 2.25699 7.02148 1.99146 7.28724 1.7257Z" fill="white"/>
<path d="M42.7479 26.9454C42.7498 18.317 42.7518 9.71489 42.7535 1.05303C42.9644 1.03169 43.2222 0.984115 43.4806 0.982658C45.1079 0.974142 46.7356 0.952046 48.3622 0.979816C50.5988 1.01777 52.2098 2.66109 52.2356 4.90474C52.2503 6.18669 52.2341 7.46912 52.2315 8.81428C52.9753 8.81109 53.6909 8.80556 54.4066 8.80612C56.4564 8.80805 57.6269 9.9856 57.6288 12.0457C57.6296 13.0158 57.6331 13.986 57.6278 14.9561C57.6174 16.8559 56.4105 18.0692 54.519 18.0813C53.7712 18.0861 53.0233 18.0776 52.236 18.0747C52.2362 19.3979 52.2378 20.6784 52.2366 21.959C52.2363 22.4284 52.2465 22.8984 52.2232 23.3669C52.1283 25.2683 50.695 26.8776 48.7995 26.9854C46.8976 27.094 44.9847 27.0108 43.0765 27.0067C42.9557 27.0062 42.835 26.9623 42.7479 26.9454Z" fill="white"/>
<path d="M39.5814 9.97026C39.5806 12.6636 39.5801 15.4434 39.5793 18.1639C32.5569 18.1646 25.4635 18.1651 18.4126 18.1658C18.4133 15.4672 18.4139 12.6884 18.4146 9.97072C25.4436 9.97049 32.5349 9.97026 39.5814 9.97026Z" fill="white"/>
</svg>
