<svg width="43" height="34" viewBox="0 0 43 34" fill="none" xmlns="http://www.w3.org/2000/svg">
<path d="M22.4237 21.6702L2.21372 8.80888C1.16889 8.11791 0.437219 7.04425 0.176251 5.81911C-0.084717 4.59396 0.145899 3.31532 0.818437 2.25854C1.49098 1.20176 2.55164 0.45137 3.77202 0.168959C4.99241 -0.113453 6.27489 0.0947051 7.3433 0.748609L22.1703 10.1836L35.483 0.86455C36.5216 0.160716 37.7955 -0.106312 39.0293 0.12114C40.2632 0.348591 41.3581 1.05227 42.0775 2.08018C42.7969 3.1081 43.0831 4.37775 42.8743 5.61491C42.6655 6.85208 41.9784 7.95746 40.9615 8.6923L22.4237 21.6702Z" fill="#EA4435"/>
<path d="M39.8148 33.4444H33.4444V4.77778C33.4444 3.51063 33.9478 2.29539 34.8438 1.39938C35.7398 0.503372 36.9551 7.15256e-07 38.2222 7.15256e-07C39.4894 7.15256e-07 40.7046 0.503372 41.6006 1.39938C42.4966 2.29539 43 3.51063 43 4.77778V30.2593C43 31.104 42.6644 31.9142 42.0671 32.5115C41.4697 33.1089 40.6596 33.4444 39.8148 33.4444Z" fill="#00AC47"/>
<path d="M42.9302 4.08597C42.9162 3.99041 42.9173 3.89279 42.8974 3.79739C42.8669 3.65119 42.81 3.51614 42.7664 3.37504C42.7241 3.21353 42.6731 3.05442 42.6138 2.89837C42.5819 2.82272 42.5329 2.75631 42.4967 2.68274C42.3976 2.47044 42.283 2.26577 42.1537 2.07038C42.09 1.97785 42.0104 1.89902 41.94 1.81143C41.8192 1.65223 41.6886 1.50069 41.549 1.3577C41.4431 1.25466 41.3224 1.1685 41.2072 1.07565C41.0849 0.970726 40.9573 0.87202 40.825 0.779906C40.6987 0.697409 40.5605 0.633865 40.4268 0.563472C40.2861 0.490054 40.1481 0.410106 40.0016 0.351498C39.86 0.294483 39.7091 0.258173 39.5611 0.214695C39.4132 0.171217 39.266 0.119139 39.1141 0.0909501C38.9258 0.0607139 38.736 0.0415701 38.5455 0.0336171C38.4246 0.0251764 38.3049 0.00399472 38.1835 0.00495028C37.9582 0.0115164 37.7337 0.0341355 37.5116 0.0726355C37.4219 0.0860133 37.3316 0.0848984 37.2426 0.103372C36.9421 0.195194 36.6424 0.289692 36.3436 0.386854C36.2616 0.421891 36.1898 0.473969 36.1103 0.513465C35.3015 0.890842 34.6194 1.49438 34.1463 2.25113C33.6732 3.00788 33.4295 3.88545 33.4444 4.77778L33.4444 13.9543L40.9615 8.6923C41.6997 8.19689 42.2784 7.49776 42.6278 6.68026C42.9771 5.86276 43.0825 4.96185 42.9302 4.08597Z" fill="#FFBA00"/>
<path d="M4.77778 0C6.04492 0 7.26017 0.503372 8.15618 1.39938C9.05218 2.29539 9.55556 3.51063 9.55556 4.77778V33.4444H3.18519C2.34042 33.4444 1.53026 33.1089 0.932919 32.5115C0.335581 31.9142 0 31.104 0 30.2593V4.77778C0 3.51063 0.503372 2.29539 1.39938 1.39938C2.29539 0.503372 3.51063 0 4.77778 0Z" fill="#4285F4"/>
<path d="M0.0699279 4.08593C0.0839428 3.99037 0.0828281 3.89274 0.102735 3.79735C0.133313 3.65115 0.190169 3.5161 0.233806 3.37499C0.276108 3.21355 0.327038 3.05448 0.386376 2.89849C0.418228 2.82284 0.46728 2.75643 0.503591 2.68285C0.602619 2.47047 0.717282 2.26574 0.846635 2.07034C0.910339 1.97781 0.989969 1.89898 1.06036 1.81139C1.18111 1.65219 1.31163 1.50065 1.45118 1.35766C1.55709 1.25462 1.67781 1.16846 1.79311 1.07561C1.91545 0.970642 2.04302 0.871935 2.17534 0.779863C2.30163 0.697367 2.43986 0.633822 2.57348 0.56343C2.71157 0.485325 2.85349 0.414206 2.99871 0.350341C3.14045 0.293326 3.29142 0.257015 3.43922 0.213537C3.58701 0.17006 3.73432 0.117982 3.88626 0.0897927C4.07449 0.0595645 4.26434 0.0404207 4.45481 0.0324597C4.57585 0.024019 4.69545 0.00283731 4.81681 0.00379287C5.04211 0.0103509 5.26665 0.0329701 5.48872 0.0714781C5.57839 0.0848559 5.66869 0.083741 5.75787 0.102215C5.91203 0.141495 6.06406 0.188699 6.21335 0.243637C6.36348 0.283542 6.51151 0.330954 6.65689 0.385697C6.73875 0.420734 6.81058 0.472812 6.89021 0.512308C7.09665 0.609297 7.29582 0.721069 7.48615 0.846752C8.1242 1.28486 8.64603 1.87168 9.00657 2.55656C9.36711 3.24143 9.55552 4.0038 9.55556 4.77778L9.55557 13.9543L2.03853 8.69218C1.30049 8.19663 0.721802 7.49788 0.372442 6.68043C0.0230828 5.86298 -0.08199 4.96183 0.0699279 4.08593Z" fill="#C52528"/>
</svg>
