<svg width="42" height="42" viewBox="0 0 42 42" fill="none" xmlns="http://www.w3.org/2000/svg">
<path d="M21 15.792C19.97 15.792 18.963 16.0974 18.1066 16.6697C17.2501 17.242 16.5826 18.0553 16.1884 19.007C15.7943 19.9586 15.6911 21.0058 15.8921 22.016C16.093 23.0263 16.589 23.9543 17.3174 24.6826C18.0457 25.411 18.9737 25.907 19.984 26.1079C20.9942 26.3089 22.0414 26.2057 22.993 25.8116C23.9447 25.4174 24.758 24.7499 25.3303 23.8934C25.9026 23.037 26.208 22.03 26.208 21C26.208 20.3161 26.0733 19.6388 25.8116 19.007C25.5498 18.3751 25.1662 17.801 24.6826 17.3174C24.199 16.8338 23.6249 16.4502 22.993 16.1884C22.3612 15.9267 21.6839 15.792 21 15.792ZM41.853 10.647C41.8419 9.02529 41.5433 7.4184 40.971 5.901C40.5495 4.79065 39.8973 3.7823 39.0575 2.94249C38.2177 2.10268 37.2094 1.45051 36.099 1.029C34.5816 0.456674 32.9747 0.158048 31.353 0.147C28.644 -1.40816e-07 27.846 0 21 0C14.154 0 13.356 -1.40816e-07 10.647 0.147C9.02529 0.158048 7.4184 0.456674 5.901 1.029C4.79065 1.45051 3.7823 2.10268 2.94249 2.94249C2.10268 3.7823 1.45051 4.79065 1.029 5.901C0.456674 7.4184 0.158048 9.02529 0.147 10.647C-1.40816e-07 13.356 0 14.154 0 21C0 27.846 -1.40816e-07 28.644 0.147 31.353C0.169604 32.9804 0.467826 34.5922 1.029 36.12C1.44864 37.2253 2.10027 38.2278 2.94 39.06C3.77621 39.9048 4.78672 40.557 5.901 40.971C7.4184 41.5433 9.02529 41.8419 10.647 41.853C13.356 42 14.154 42 21 42C27.846 42 28.644 42 31.353 41.853C32.9747 41.8419 34.5816 41.5433 36.099 40.971C37.2133 40.557 38.2238 39.9048 39.06 39.06C39.8997 38.2278 40.5514 37.2253 40.971 36.12C41.5428 34.5952 41.8413 32.9815 41.853 31.353C42 28.644 42 27.846 42 21C42 14.154 42 13.356 41.853 10.647ZM36.519 27.447C36.4516 28.7429 36.175 30.0194 35.7 31.227C35.2923 32.2343 34.6863 33.1494 33.9178 33.9178C33.1494 34.6863 32.2343 35.2923 31.227 35.7C30.008 36.1485 28.7244 36.3968 27.426 36.435C25.767 36.435 25.326 36.435 21 36.435C16.674 36.435 16.233 36.435 14.574 36.435C13.2756 36.3968 11.992 36.1485 10.773 35.7C9.73162 35.313 8.79118 34.6956 8.022 33.894C7.2611 33.1406 6.67347 32.2305 6.3 31.227C5.84967 30.0092 5.60827 28.7242 5.586 27.426C5.586 25.767 5.586 25.326 5.586 21C5.586 16.674 5.586 16.233 5.586 14.574C5.60827 13.2758 5.84967 11.9908 6.3 10.773C6.68699 9.73162 7.30438 8.79118 8.106 8.022C8.8627 7.26521 9.77185 6.6782 10.773 6.3C11.992 5.85145 13.2756 5.60324 14.574 5.565C16.233 5.565 16.674 5.565 21 5.565C25.326 5.565 25.767 5.565 27.426 5.565C28.7244 5.60324 30.008 5.85145 31.227 6.3C32.2684 6.68699 33.2088 7.30438 33.978 8.106C34.7389 8.85937 35.3265 9.76948 35.7 10.773C36.1485 11.992 36.3968 13.2756 36.435 14.574C36.435 16.233 36.435 16.674 36.435 21C36.435 25.326 36.582 25.767 36.519 27.426V27.447ZM33.159 11.823C32.909 11.1447 32.5148 10.5286 32.0035 10.0174C31.4923 9.50625 30.8763 9.11203 30.198 8.862C29.2666 8.53915 28.2856 8.38276 27.3 8.4C25.662 8.4 25.2 8.4 21 8.4C16.8 8.4 16.338 8.4 14.7 8.4C13.7094 8.40968 12.7282 8.59453 11.802 8.946C11.1341 9.18468 10.5246 9.5628 10.014 10.0552C9.5035 10.5476 9.10363 11.1431 8.841 11.802C8.53603 12.7373 8.38704 13.7163 8.4 14.7C8.4 16.338 8.4 16.8 8.4 21C8.4 25.2 8.4 25.662 8.4 27.3C8.42082 28.2895 8.60531 29.2687 8.946 30.198C9.19603 30.8763 9.59025 31.4923 10.1014 32.0035C10.6126 32.5148 11.2287 32.909 11.907 33.159C12.803 33.4885 13.7459 33.6728 14.7 33.705C16.338 33.705 16.8 33.705 21 33.705C25.2 33.705 25.662 33.705 27.3 33.705C28.2906 33.6953 29.2718 33.5105 30.198 33.159C30.8763 32.909 31.4923 32.5148 32.0035 32.0035C32.5148 31.4923 32.909 30.8763 33.159 30.198C33.5105 29.2718 33.6953 28.2906 33.705 27.3C33.705 25.662 33.705 25.2 33.705 21C33.705 16.8 33.705 16.338 33.705 14.7C33.7056 13.7084 33.5204 12.7254 33.159 11.802V11.823ZM21 29.022C19.9475 29.022 18.9054 28.8144 17.9333 28.411C16.9612 28.0076 16.0782 27.4163 15.335 26.6711C14.5918 25.926 14.0029 25.0414 13.602 24.0683C13.2012 23.0951 12.9962 22.0525 12.999 21C12.999 19.4125 13.47 17.8607 14.3524 16.541C15.2348 15.2214 16.4889 14.1932 17.956 13.5866C19.423 12.9801 21.0371 12.8225 22.5938 13.1337C24.1504 13.4449 25.5798 14.2111 26.7008 15.3351C27.8219 16.4591 28.5843 17.8904 28.8914 19.4479C29.1986 21.0054 29.0367 22.619 28.4263 24.0845C27.8159 25.5499 26.7845 26.8013 25.4625 27.6803C24.1405 28.5592 22.5875 29.0262 21 29.022ZM29.4 14.553C28.9358 14.5039 28.5062 14.2847 28.1939 13.9376C27.8817 13.5906 27.7089 13.1403 27.7089 12.6735C27.7089 12.2067 27.8817 11.7564 28.1939 11.4094C28.5062 11.0623 28.9358 10.8431 29.4 10.794C29.8642 10.8431 30.2938 11.0623 30.6061 11.4094C30.9183 11.7564 31.0911 12.2067 31.0911 12.6735C31.0911 13.1403 30.9183 13.5906 30.6061 13.9376C30.2938 14.2847 29.8642 14.5039 29.4 14.553Z" fill="white"/>
</svg>
