<svg width="67" height="15" viewBox="0 0 67 15" fill="none" xmlns="http://www.w3.org/2000/svg">
<path d="M10.8398 10.0732C8.71191 13.7588 4.89547 15.5391 2.31554 14.0495C-0.264385 12.56 -0.630836 8.36473 1.49705 4.67912C3.62494 0.993506 7.44139 -0.786778 10.0213 0.702745C12.6012 2.19227 12.9677 6.38755 10.8398 10.0732Z" fill="white"/>
<path d="M37.8883 10.0674C35.7604 13.753 31.944 15.5333 29.364 14.0437C26.7841 12.5542 26.4177 8.35894 28.5456 4.67333C30.6734 0.987712 34.4899 -0.792572 37.0698 0.696951C39.6497 2.18647 40.0162 6.38175 37.8883 10.0674Z" fill="white"/>
<path d="M64.9368 10.0674C62.8089 13.753 58.9925 15.5333 56.4126 14.0437C53.8326 12.5542 53.4662 8.35894 55.5941 4.67333C57.722 0.987712 61.5384 -0.792572 64.1183 0.696951C66.6983 2.18647 67.0647 6.38175 64.9368 10.0674Z" fill="white"/>
</svg>
