<svg width="43" height="43" viewBox="0 0 43 43" fill="none" xmlns="http://www.w3.org/2000/svg">
<path d="M43 21.5C43 9.62588 33.3741 0 21.5 0C9.62588 0 0 9.62588 0 21.5C0 33.3741 9.62588 43 21.5 43C33.3741 43 43 33.3741 43 21.5Z" fill="#419FD9"/>
<path d="M43 21.5C43 9.62588 33.3741 0 21.5 0C9.62588 0 0 9.62588 0 21.5C0 33.3741 9.62588 43 21.5 43C33.3741 43 43 33.3741 43 21.5Z" fill="url(#paint0_linear_524_308)"/>
<path d="M9.66371 21.0261C15.916 18.2449 20.0851 16.4113 22.1712 15.5253C28.1273 12.9959 29.365 12.5565 30.1717 12.5419C30.349 12.5388 30.7457 12.5837 31.0027 12.7966C31.2197 12.9764 31.2794 13.2192 31.3079 13.3896C31.3365 13.5601 31.3721 13.9483 31.3438 14.2517C31.021 17.7143 29.6245 26.1171 28.9139 29.9952C28.6133 31.6362 28.0213 32.1864 27.4482 32.2403C26.2028 32.3573 25.2569 31.3999 24.0507 30.5925C22.163 29.3292 21.0967 28.5426 19.2644 27.3099C17.1469 25.8851 18.5196 25.1021 19.7263 23.8223C20.0421 23.4875 25.5297 18.3911 25.636 17.9288C25.6492 17.8709 25.6616 17.6554 25.5362 17.5416C25.4108 17.4279 25.2257 17.4667 25.0921 17.4976C24.9028 17.5415 21.8873 19.5766 16.0455 23.6028C15.1896 24.203 14.4143 24.4953 13.7197 24.4799C12.9539 24.4631 11.4809 24.0379 10.3858 23.6745C9.04272 23.2286 7.97519 22.993 8.06814 22.236C8.11656 21.8416 8.6484 21.4383 9.66371 21.0261Z" fill="white"/>
<defs>
<linearGradient id="paint0_linear_524_308" x1="21.5" y1="0" x2="21.5" y2="42.6811" gradientUnits="userSpaceOnUse">
<stop stop-color="#2AABEE"/>
<stop offset="1" stop-color="#229ED9"/>
</linearGradient>
</defs>
</svg>
