<svg width="42" height="46" viewBox="0 0 42 46" fill="none" xmlns="http://www.w3.org/2000/svg">
<path fill-rule="evenodd" clip-rule="evenodd" d="M21 0C19.8402 0 18.9 0.936142 18.9 2.09091V31.3636C18.9 33.6733 17.0196 35.5455 14.7 35.5455C12.3804 35.5455 10.5 33.6733 10.5 31.3636C10.5 29.054 12.3804 27.1818 14.7 27.1818C15.8598 27.1818 16.8 26.2457 16.8 25.0909V18.8182C16.8 17.6634 15.8598 16.7273 14.7 16.7273C6.58142 16.7273 0 23.2802 0 31.3636C0 39.4471 6.58142 46 14.7 46C22.8186 46 29.4 39.4471 29.4 31.3636V20.2022C32.4891 21.9811 36.0763 23 39.9 23C41.0598 23 42 22.0639 42 20.9091V14.6364C42 13.4816 41.0598 12.5455 39.9 12.5455C34.1011 12.5455 29.4 7.86479 29.4 2.09091C29.4 0.936142 28.4598 0 27.3 0H21Z" fill="white"/>
</svg>
