<svg width="43" height="43" viewBox="0 0 43 43" fill="none" xmlns="http://www.w3.org/2000/svg">
<path d="M21.5001 0C9.6452 0 0.000138743 9.64506 0.000138743 21.4999C0.000138743 25.2017 0.956418 28.8417 2.76989 32.0536L0.0347255 41.8127C-0.0550133 42.1333 0.0319213 42.4773 0.263747 42.7157C0.44229 42.8998 0.685332 42.9999 0.934918 42.9999C1.0097 42.9999 1.08542 42.9905 1.15927 42.9728L11.3446 40.4498C14.4546 42.1193 17.9573 42.9999 21.5001 42.9999C33.3549 42.9999 43 33.3548 43 21.4999C43 9.64506 33.3549 0 21.5001 0ZM32.3155 29.0866C31.8556 30.3598 29.6495 31.5217 28.5894 31.6778C27.6378 31.8171 26.4338 31.8769 25.1121 31.4619C24.311 31.2095 23.2827 30.8748 21.9656 30.313C16.4289 27.9518 12.8132 22.4469 12.5365 22.0832C12.2607 21.7196 10.2827 19.1284 10.2827 16.4465C10.2827 13.7646 11.7083 12.4457 12.2149 11.8997C12.7216 11.3538 13.3189 11.2174 13.6872 11.2174C14.0555 11.2174 14.4229 11.222 14.7454 11.237C15.0847 11.2538 15.5399 11.1089 15.9877 12.1727C16.4476 13.2645 17.5516 15.9464 17.688 16.2203C17.8264 16.4933 17.918 16.812 17.7348 17.1756C17.5516 17.5393 17.46 17.7664 17.1833 18.0852C16.9066 18.4039 16.6037 18.7956 16.355 19.0405C16.0783 19.3125 15.7914 19.607 16.1129 20.1529C16.4345 20.6988 17.5422 22.4833 19.1837 23.9285C21.2916 25.785 23.0705 26.3608 23.622 26.6337C24.1735 26.9067 24.496 26.8609 24.8176 26.4973C25.1392 26.1327 26.1973 24.9053 26.5647 24.3604C26.9321 23.8154 27.3004 23.9051 27.807 24.0874C28.3137 24.2687 31.0273 25.5868 31.5789 25.8597C32.1304 26.1327 32.4987 26.2692 32.637 26.4963C32.7754 26.7225 32.7754 27.8144 32.3155 29.0866Z" fill="#50EC36"/>
</svg>
