<svg width="42" height="29" viewBox="0 0 42 29" fill="none" xmlns="http://www.w3.org/2000/svg">
<path d="M41.9903 10.2205C42.0847 7.5371 41.4875 4.87377 40.2542 2.47782C39.4174 1.4947 38.2561 0.831249 36.9726 0.603074C31.6639 0.129748 26.3333 -0.0642523 21.0036 0.0219032C15.6933 -0.0681627 10.3818 0.119578 5.0918 0.584327C4.04593 0.77127 3.07806 1.25331 2.30628 1.97164C0.589186 3.52767 0.398397 6.18981 0.207608 8.4395C-0.0692028 12.4844 -0.0692028 16.543 0.207608 20.5878C0.262804 21.8541 0.454668 23.1109 0.779974 24.3373C1.01002 25.2842 1.47544 26.1602 2.13457 26.887C2.9116 27.6434 3.90201 28.1528 4.97733 28.3493C9.09057 28.8482 13.2351 29.0549 17.3786 28.9679C24.0562 29.0617 29.9134 28.968 36.839 28.443C37.9408 28.2586 38.9591 27.7485 39.7581 26.9807C40.2922 26.4556 40.6912 25.8129 40.9219 25.106C41.6042 23.0487 41.9394 20.8955 41.914 18.7318C41.9903 17.682 41.9903 11.3454 41.9903 10.2205ZM16.6917 19.8567V8.25203L27.9864 14.0825C24.8193 15.8072 20.6411 17.757 16.6917 19.8567Z" fill="white"/>
</svg>
